<svg width="40" height="40" viewBox="0 0 40 40" fill="none" xmlns="http://www.w3.org/2000/svg">
<path d="M9.9974 31.6673C8.60851 31.6673 7.42795 31.1812 6.45573 30.209C5.48351 29.2368 4.9974 28.0562 4.9974 26.6673H1.66406V11.6673C1.66406 10.7507 1.99045 9.96593 2.64323 9.31315C3.29601 8.66037 4.08073 8.33398 4.9974 8.33398H28.3307L38.3307 18.334V26.6673H34.9974C34.9974 28.0562 34.5113 29.2368 33.5391 30.209C32.5668 31.1812 31.3863 31.6673 29.9974 31.6673C28.6085 31.6673 27.428 31.1812 26.4557 30.209C25.4835 29.2368 24.9974 28.0562 24.9974 26.6673H14.9974C14.9974 28.0562 14.5113 29.2368 13.5391 30.209C12.5668 31.1812 11.3863 31.6673 9.9974 31.6673ZM24.9974 16.6673H31.6641L26.6641 11.6673H24.9974V16.6673ZM14.9974 16.6673H21.6641V11.6673H14.9974V16.6673ZM4.9974 16.6673H11.6641V11.6673H4.9974V16.6673ZM9.9974 28.7506C10.5807 28.7506 11.0738 28.5493 11.4766 28.1465C11.8793 27.7437 12.0807 27.2506 12.0807 26.6673C12.0807 26.084 11.8793 25.5909 11.4766 25.1882C11.0738 24.7854 10.5807 24.584 9.9974 24.584C9.41406 24.584 8.92101 24.7854 8.51823 25.1882C8.11545 25.5909 7.91406 26.084 7.91406 26.6673C7.91406 27.2506 8.11545 27.7437 8.51823 28.1465C8.92101 28.5493 9.41406 28.7506 9.9974 28.7506ZM29.9974 28.7506C30.5807 28.7506 31.0738 28.5493 31.4766 28.1465C31.8793 27.7437 32.0807 27.2506 32.0807 26.6673C32.0807 26.084 31.8793 25.5909 31.4766 25.1882C31.0738 24.7854 30.5807 24.584 29.9974 24.584C29.4141 24.584 28.921 24.7854 28.5182 25.1882C28.1155 25.5909 27.9141 26.084 27.9141 26.6673C27.9141 27.2506 28.1155 27.7437 28.5182 28.1465C28.921 28.5493 29.4141 28.7506 29.9974 28.7506ZM4.9974 23.334H6.33073C6.80295 22.834 7.34462 22.4312 7.95573 22.1257C8.56684 21.8201 9.2474 21.6673 9.9974 21.6673C10.7474 21.6673 11.428 21.8201 12.0391 22.1257C12.6502 22.4312 13.1918 22.834 13.6641 23.334H26.3307C26.803 22.834 27.3446 22.4312 27.9557 22.1257C28.5668 21.8201 29.2474 21.6673 29.9974 21.6673C30.7474 21.6673 31.428 21.8201 32.0391 22.1257C32.6502 22.4312 33.1918 22.834 33.6641 23.334H34.9974V20.0007H4.9974V23.334Z" fill="#FDFDFD"/>
</svg>
