<svg width="42" height="47" viewBox="0 0 42 47" fill="none" xmlns="http://www.w3.org/2000/svg">
<path d="M9.33333 21H14V25.6667H9.33333V21ZM9.33333 30.3333H14V35H9.33333V30.3333ZM18.6667 21H23.3333V25.6667H18.6667V21ZM18.6667 30.3333H23.3333V35H18.6667V30.3333ZM28 21H32.6667V25.6667H28V21ZM28 30.3333H32.6667V35H28V30.3333Z" fill="#EF8F19"/>
<path d="M4.66667 46.6667H37.3333C39.907 46.6667 42 44.5737 42 42V9.33333C42 6.75967 39.907 4.66667 37.3333 4.66667H32.6667V0H28V4.66667H14V0H9.33333V4.66667H4.66667C2.093 4.66667 0 6.75967 0 9.33333V42C0 44.5737 2.093 46.6667 4.66667 46.6667ZM37.3333 14L37.3357 42H4.66667V14H37.3333Z" fill="#EF8F19"/>
</svg>
