<svg width="17" height="13" viewBox="0 0 17 13" fill="none" xmlns="http://www.w3.org/2000/svg">
<path d="M16.8479 1.56384L6.2479 12.1638C6.15402 12.2585 6.02622 12.3117 5.8929 12.3117C5.75958 12.3117 5.63178 12.2585 5.5379 12.1638L0.1479 6.7738C0.0532401 6.68 0 6.5522 0 6.4188C0 6.2855 0.0532401 6.1577 0.1479 6.0638L0.8479 5.3638C0.94178 5.2692 1.06958 5.2159 1.2029 5.2159C1.33622 5.2159 1.46402 5.2692 1.5579 5.3638L5.8879 9.6938L15.4379 0.143843C15.6357 -0.0479475 15.9501 -0.0479475 16.1479 0.143843L16.8479 0.853843C16.9426 0.947723 16.9958 1.07552 16.9958 1.20884C16.9958 1.34216 16.9426 1.46995 16.8479 1.56384Z" fill="#FDFDFD"/>
</svg>
