<svg width="80" height="100" viewBox="0 0 80 100" fill="none" xmlns="http://www.w3.org/2000/svg">
<path d="M72.3635 76.5843C57.8954 100.005 27.3519 107.005 4.17626 92.3329C-18.9994 77.6611 -25.9654 46.8368 -11.3635 23.4157C3.10456 -0.00531123 33.6481 -7.00471 56.8237 7.6671C79.9994 22.3389 86.9654 53.1632 72.3635 76.5843Z" fill="url(#paint0_radial_1184_72838)" style="mix-blend-mode:screen"/>
<path d="M68.9727 76.3501C61.2373 89.0159 44.8329 92.7887 32.4296 84.8389C20.0262 76.889 16.2919 60.3157 24.0273 47.6499C31.7627 34.9841 48.1671 31.2113 60.5704 39.1611C72.9738 47.111 76.7081 63.6843 68.9727 76.3501Z" fill="url(#paint1_radial_1184_72838)"/>
<defs>
<radialGradient id="paint0_radial_1184_72838" cx="0" cy="0" r="1" gradientTransform="matrix(41.6793 26.4541 -26.3282 41.8786 27.3797 54.4586)" gradientUnits="userSpaceOnUse">
<stop stop-color="#BFBFBF"/>
<stop offset="0.14" stop-color="#8C8C8C"/>
<stop offset="0.28" stop-color="#616161"/>
<stop offset="0.42" stop-color="#3E3E3E"/>
<stop offset="0.56" stop-color="#232323"/>
<stop offset="0.7" stop-color="#0F0F0F"/>
<stop offset="0.85" stop-color="#030303"/>
<stop offset="1"/>
</radialGradient>
<radialGradient id="paint1_radial_1184_72838" cx="0" cy="0" r="1" gradientTransform="matrix(41.2689 26.3374 -26.069 41.6939 59.1008 77.4406)" gradientUnits="userSpaceOnUse">
<stop offset="0.51"/>
<stop offset="0.55" stop-color="#040404"/>
<stop offset="0.6" stop-color="#111111"/>
<stop offset="0.65" stop-color="#262626"/>
<stop offset="0.7" stop-color="#444444"/>
<stop offset="0.75" stop-color="#6B6B6B"/>
<stop offset="0.81" stop-color="#9A9A9A"/>
<stop offset="0.86" stop-color="#D1D1D1"/>
<stop offset="0.9" stop-color="white"/>
</radialGradient>
</defs>
</svg>
