<svg width="1440" height="225" viewBox="0 0 1440 225" fill="none" xmlns="http://www.w3.org/2000/svg">
<g opacity="0.8" filter="url(#filter0_di_1184_74404)">
<path d="M1338 205C1320.1 205 1304.86 202.075 1292 196C1279.32 189.925 1269.34 182.373 1261 173C1252.83 163.453 1246.82 152.63 1243 141C1239.18 129.37 1237 117.935 1237 107V101C1237 89.1969 1239 77.6295 1243 66C1247 54.3705 1253.01 44.1995 1261 35C1269.17 25.8005 1278.84 18.728 1291 13C1303.16 7.27202 1317.67 4 1334 4C1347.03 4 1359.05 6.18134 1370 10C1380.95 13.6451 1390.83 18.2306 1399 25C1407.17 31.5959 1413.13 39.6269 1418 49C1423.04 58.1995 1426.96 68.8912 1428 80H1379C1377.44 71.3212 1372.99 63.728 1365 58C1357.01 52.0984 1346.34 49 1334 49C1326.18 49 1319.08 50.2228 1313 53C1307.09 55.7772 1302.17 60.1399 1298 65C1294 69.8601 1291.09 75.2306 1289 82C1286.91 88.7694 1286 97.0155 1286 105C1286 112.984 1286.74 120.057 1289 127C1291.26 133.943 1294.66 139.966 1299 145C1303.34 149.86 1309.4 154.049 1316 157C1322.6 159.777 1329.49 161 1338 161C1347.21 161 1356.05 159.298 1363 156C1369.95 152.702 1375 148.554 1379 143V133H1333V99H1439V133H1423V162C1415.01 175.712 1403.6 186.536 1389 194C1374.4 201.29 1357.46 205 1338 205Z" fill="white" fill-opacity="0.16"/>
<path d="M1055 200V8H1134C1146.38 8 1158.06 9.21739 1168 12C1177.94 14.7826 1186.03 19.4348 1193 25C1199.97 30.3913 1205.34 36.8261 1209 45C1212.66 53 1214 62.2174 1214 73V77C1214 90.913 1211.1 102.783 1205 112C1198.9 121.217 1190.33 127.957 1179 133L1226 200H1170L1131 142H1104V200H1055ZM1137 104C1145.54 104 1151.94 101.87 1157 97C1162.23 91.9565 1165 85.5217 1165 77C1165 68.4783 1162.23 61.0435 1157 56C1151.94 50.9565 1145.54 49 1137 49H1104V104H1137Z" fill="white" fill-opacity="0.16"/>
<path d="M934 205C920.247 205 908.62 202.813 898 199C887.555 195.013 878.312 190.107 871 183C863.862 175.893 857.83 167.227 854 157C850.344 146.6 849 134.653 849 122V10H898V123C898 134.44 900.733 143.413 907 150C913.267 156.413 922.162 160 934 160C945.664 160 954.733 156.413 961 150C967.267 143.413 970 134.44 970 123V10H1019V122C1019 134.653 1017.66 146.6 1014 157C1010.34 167.227 1004.31 175.893 997 183C989.862 190.107 980.62 195.013 970 199C959.555 202.813 947.753 205 934 205Z" fill="white" fill-opacity="0.16"/>
<path d="M672 201V8H747C769.356 8 786.774 12.8095 799 22C811.226 31.1905 817 44.6595 817 62V65C817 73.3235 815.144 81.1042 812 87C809.031 92.8958 805.414 97.1851 800 101C807.86 104.988 813.634 110.411 818 117C822.541 123.589 825 132.596 825 143V146C825 163.341 819.051 177.463 807 187C794.949 196.537 777.88 201 755 201H672ZM749 86C756.161 86 760.856 84.4681 764 81C767.318 77.3585 769 71.416 769 65C769 58.4106 767.318 53.4681 764 50C760.856 46.3585 756.161 45 749 45H719V86H749ZM756 164C770.147 164 777 157.219 777 143C777 128.954 770.147 122 756 122H719V164H756Z" fill="white" fill-opacity="0.16"/>
<path d="M414 200V10H481L520 110H526L564 10H633V200H585V57L544 162H500L458 59V200H414Z" fill="white" fill-opacity="0.16"/>
<path d="M190 200L251 10H329L392 200H342L328 156H252L239 200H190ZM316 116L294 49H285L264 116H316Z" fill="white" fill-opacity="0.16"/>
<path d="M120 200V125H48V200H-1V10H48V83H120V10H169V200H120Z" fill="white" fill-opacity="0.16"/>
</g>
<defs>
<filter id="filter0_di_1184_74404" x="-5" y="0" width="1464" height="225" filterUnits="userSpaceOnUse" color-interpolation-filters="sRGB">
<feFlood flood-opacity="0" result="BackgroundImageFix"/>
<feColorMatrix in="SourceAlpha" type="matrix" values="0 0 0 0 0 0 0 0 0 0 0 0 0 0 0 0 0 0 127 0" result="hardAlpha"/>
<feOffset dx="8" dy="8"/>
<feGaussianBlur stdDeviation="6"/>
<feComposite in2="hardAlpha" operator="out"/>
<feColorMatrix type="matrix" values="0 0 0 0 0 0 0 0 0 0 0 0 0 0 0 0 0 0 0.25 0"/>
<feBlend mode="normal" in2="BackgroundImageFix" result="effect1_dropShadow_1184_74404"/>
<feBlend mode="normal" in="SourceGraphic" in2="effect1_dropShadow_1184_74404" result="shape"/>
<feColorMatrix in="SourceAlpha" type="matrix" values="0 0 0 0 0 0 0 0 0 0 0 0 0 0 0 0 0 0 127 0" result="hardAlpha"/>
<feOffset dx="8" dy="8"/>
<feGaussianBlur stdDeviation="8"/>
<feComposite in2="hardAlpha" operator="arithmetic" k2="-1" k3="1"/>
<feColorMatrix type="matrix" values="0 0 0 0 0 0 0 0 0 0 0 0 0 0 0 0 0 0 0.4 0"/>
<feBlend mode="normal" in2="shape" result="effect2_innerShadow_1184_74404"/>
</filter>
</defs>
</svg>
