<svg width="40" height="40" viewBox="0 0 40 40" fill="none" xmlns="http://www.w3.org/2000/svg">
<path d="M31.668 23.3333V12.5L23.3346 6.66667L15.0013 12.5V15H11.668V10.8333L23.3346 2.5L35.0013 10.8333V23.3333H31.668ZM24.168 13.3333H25.8346V11.6667H24.168V13.3333ZM20.8346 13.3333H22.5013V11.6667H20.8346V13.3333ZM24.168 16.6667H25.8346V15H24.168V16.6667ZM20.8346 16.6667H22.5013V15H20.8346V16.6667ZM11.668 30.8333L23.2513 34L33.168 30.9167C33.0291 30.6667 32.8277 30.4514 32.5638 30.2708C32.2999 30.0903 32.0013 30 31.668 30H23.2513C22.5013 30 21.9041 29.9722 21.4596 29.9167C21.0152 29.8611 20.5569 29.75 20.0846 29.5833L16.2096 28.2917L17.1263 25.0417L20.5013 26.1667C20.9735 26.3056 21.5291 26.4167 22.168 26.5C22.8069 26.5833 23.7513 26.6389 25.0013 26.6667C25.0013 26.3611 24.911 26.0694 24.7305 25.7917C24.5499 25.5139 24.3346 25.3333 24.0846 25.25L14.3346 21.6667H11.668V30.8333ZM1.66797 36.6667V18.3333H14.3346C14.5291 18.3333 14.7235 18.3542 14.918 18.3958C15.1124 18.4375 15.293 18.4861 15.4596 18.5417L25.2513 22.1667C26.168 22.5 26.911 23.0833 27.4805 23.9167C28.0499 24.75 28.3346 25.6667 28.3346 26.6667H31.668C33.0569 26.6667 34.2374 27.125 35.2096 28.0417C36.1819 28.9583 36.668 30.1667 36.668 31.6667V33.3333L23.3346 37.5L11.668 34.25V36.6667H1.66797ZM5.0013 33.3333H8.33464V21.6667H5.0013V33.3333Z" fill="#FDFDFD"/>
</svg>
