<svg version="1.2" xmlns="http://www.w3.org/2000/svg" viewBox="0 0 128 204" width="128" height="204"><defs><clipPath clipPathUnits="userSpaceOnUse" id="cp1"><path d="m-2975-3837h3840v16400h-3840z"/></clipPath></defs><style>.a{fill:#003862}</style><g clip-path="url(#cp1)"><path fill-rule="evenodd" class="a" d="m57.4 107.9h13.5c31.1 0 56.5 25.3 56.5 56.5v34.1c0 2.5-2 4.5-4.5 4.5h-117.4c-2.5 0-4.5-2-4.5-4.5v-34.1c0-31.2 25.3-56.5 56.4-56.5zm-47.4 56.5v29.7h108.5v-29.7c0-26.2-21.4-47.5-47.6-47.5h-13.4c-26.2 0-47.5 21.3-47.5 47.5zm99.1-147.9l-11.7 39.5c1.1 3.4 1.7 7 1.7 10.7 0 19.3-15.6 34.9-34.9 34.9-19.2 0-34.9-15.6-34.9-34.9q0-5.5 1.7-10.7l-11.7-39.5c-1-3.4-0.3-7 1.8-9.9 2.6-3.6 7-5.6 11.8-5.6h62.7c4.7 0 9.1 2 11.7 5.6 2.2 2.9 2.8 6.5 1.8 9.9zm-19 50.2c0-1.9-0.2-3.8-0.6-5.6h-50.6c-0.4 1.9-0.6 3.7-0.6 5.6 0 14.3 11.6 26 25.9 26 14.3 0 25.9-11.7 25.9-26zm10-54.8c-0.7-0.9-2.3-1.9-4.5-1.9h-62.7c-2.3 0-3.9 1-4.6 1.9-0.7 1-0.5 1.8-0.4 2l11.4 38.2h49.9l11.4-38.2c0-0.2 0.2-1-0.5-2z"/><path class="a" d="m72.9 26.6h-4.2v-4.2c0-2.5-2-4.5-4.5-4.5-2.5 0-4.4 2-4.4 4.5v4.2h-4.2c-2.5 0-4.5 2-4.5 4.4 0 2.5 2 4.5 4.5 4.5h4.2v4.2c0 2.5 2 4.4 4.4 4.4 2.5 0 4.5-2 4.5-4.4v-4.2h4.2c2.5 0 4.4-2 4.4-4.5 0.1-2.4-1.9-4.4-4.4-4.4z"/></g></svg>