<svg version="1.2" xmlns="http://www.w3.org/2000/svg" viewBox="0 0 204 208" width="204" height="208"><defs><clipPath clipPathUnits="userSpaceOnUse" id="cp1"><path d="m-727-3831h3840v16400h-3840z"/></clipPath></defs><style>.a{fill:none;stroke:#003862;stroke-linecap:round;stroke-linejoin:round;stroke-width:7.7}</style><g clip-path="url(#cp1)"><path fill-rule="evenodd" class="a" d="m9.8 203.5h142.2c3 0 5.4-2.4 5.4-5.3v-24.6c0-3-2.4-5.4-5.4-5.4h-142.2c-3 0-5.4 2.4-5.4 5.4v24.6c0 2.9 2.4 5.3 5.4 5.3zm131.6-35.3h-121v-33.8c0-3 2.4-5.4 5.3-5.4h110.3c3 0 5.4 2.4 5.4 5.4v19.9zm-10.9 0h-99.3v-28.4h99.3zm-35-39.3h-29.3v-17.1h29.3zm-43.9-94h81.2c4.7 0 8.6 3.8 8.6 8.5v59.8c0 4.8-3.9 8.6-8.6 8.6h-103.9c-4.7 0-8.5-3.8-8.5-8.6v-59.8c0-4.7 3.8-8.5 8.5-8.5h15.1zm102.7-15.9h45.3v-9.4c0-2.7-2.2-4.9-4.9-4.9h-35.5c-2.7 0-4.9 2.2-4.9 4.9zm45.3 0v24.4c0 3.2-2.6 5.8-5.8 5.8h-6v10.2c0 2.8-2.2 5.1-5 5.1h-11.6c-2.8 0-5.1-2.3-5.1-5.1v-10.2h-6c-3.2 0-5.8-2.6-5.8-5.8v-24.4zm-22.7 45.5v115.4c0 3.3-2.6 5.9-5.9 5.9h-34.5"/></g></svg>