<svg width="79" height="82" viewBox="0 0 79 82" fill="none" xmlns="http://www.w3.org/2000/svg">
<path d="M61.0975 43.1605C59.9141 53.0147 53.46 56.9522 50.6725 59.8105C47.8808 62.6772 48.3808 63.248 48.5683 67.4522C48.5996 67.9723 48.524 68.4934 48.3463 68.9832C48.1685 69.4731 47.8924 69.9213 47.5348 70.3004C47.1772 70.6794 46.7458 70.9812 46.2671 71.1872C45.7885 71.3932 45.2727 71.499 44.7516 71.498H33.6766C33.1559 71.4971 32.6408 71.3901 32.1627 71.1836C31.6847 70.977 31.2538 70.6753 30.8962 70.2967C30.5387 69.9181 30.2621 69.4706 30.0832 68.9815C29.9043 68.4925 29.8269 67.9721 29.8558 67.4522C29.8558 63.3272 30.2391 62.3688 27.7558 59.8105C24.5891 56.6438 17.1391 52.173 17.1391 39.8772C17.1201 36.823 17.734 33.798 18.9421 30.9929C20.1502 28.1877 21.9263 25.6633 24.1585 23.5786C26.3906 21.494 29.0305 19.8944 31.9115 18.8806C34.7926 17.8668 37.8525 17.4609 40.8982 17.6884C43.944 17.9159 46.9096 18.7719 49.6081 20.2024C52.3066 21.6329 54.6795 23.6069 56.5772 26C58.4749 28.3931 59.8563 31.1534 60.6343 34.1069C61.4123 37.0604 61.57 40.143 61.0975 43.1605Z" stroke="#EF8F19" stroke-width="2.05027" stroke-linecap="round" stroke-linejoin="round"/>
<path d="M32.7962 71.2713V77.5712C32.7962 79.2921 33.7546 80.7046 34.9337 80.7046H43.4879C44.6754 80.7046 45.6296 79.2879 45.6296 77.5712V71.2713M35.9629 27.3546C33.5027 27.3557 31.1435 28.3338 29.4042 30.0738C27.665 31.8139 26.6879 34.1735 26.6879 36.6337M69.7629 40.7212H77.4046M62.0713 15.6712L67.4921 10.2504M66.2379 61.9546L71.6588 67.3712M39.2129 1.02539V7.20456M11.0462 10.2462L16.4296 15.6712M6.87956 67.3712L12.2629 61.9546M8.6629 40.7212H1.02539" stroke="#EF8F19" stroke-width="2.05027" stroke-linecap="round" stroke-linejoin="round"/>
</svg>
