<svg width="64" height="64" viewBox="0 0 64 64" fill="none" xmlns="http://www.w3.org/2000/svg">
<path d="M4.77158 37.7091C2.03653 40.4441 0.5 44.1536 0.5 48.0216C0.5 51.8895 2.03653 55.599 4.77158 58.3341C7.50662 61.0691 11.2161 62.6057 15.0841 62.6057C18.952 62.6057 22.6615 61.0691 25.3966 58.3341M35.7007 27.4049C37.0551 28.7591 38.1294 30.3668 38.8624 32.1363C39.5954 33.9057 39.9726 35.8022 39.9726 37.7174C39.9726 39.6326 39.5954 41.5291 38.8624 43.2986C38.1294 45.068 37.0551 46.6757 35.7007 48.0299L25.3882 58.3424M15.0757 27.4049L4.76324 37.7174M58.3341 25.3966C61.0691 22.6615 62.6057 18.952 62.6057 15.0841C62.6057 11.2161 61.0691 7.50662 58.3341 4.77158C55.599 2.03653 51.8895 0.5 48.0216 0.5C44.1536 0.5 40.4441 2.03653 37.7091 4.77158M27.4132 35.7049C26.0589 34.3507 24.9846 32.743 24.2516 30.9736C23.5186 29.2041 23.1414 27.3076 23.1414 25.3924C23.1414 23.4772 23.5186 21.5807 24.2516 19.8113C24.9846 18.0418 26.0589 16.4341 27.4132 15.0799L37.7216 4.76741M48.0299 35.7049L58.3424 25.3924" stroke="#EF8F19" stroke-linecap="round" stroke-linejoin="round"/>
</svg>
