<svg width="100" height="100" viewBox="0 0 100 100" fill="none" xmlns="http://www.w3.org/2000/svg">
<path d="M87.5009 87.5009L69.405 69.405M69.405 69.405C72.5004 66.3097 74.9558 62.6349 76.631 58.5906C78.3062 54.5463 79.1684 50.2117 79.1684 45.8342C79.1684 41.4567 78.3062 37.122 76.631 33.0778C74.9558 29.0335 72.5004 25.3587 69.405 22.2634C66.3097 19.168 62.6349 16.7126 58.5906 15.0374C54.5463 13.3622 50.2117 12.5 45.8342 12.5C41.4567 12.5 37.122 13.3622 33.0777 15.0374C29.0335 16.7126 25.3587 19.168 22.2634 22.2634C16.012 28.5147 12.5 36.9934 12.5 45.8342C12.5 54.675 16.012 63.1537 22.2634 69.405C28.5147 75.6564 36.9934 79.1684 45.8342 79.1684C54.675 79.1684 63.1536 75.6564 69.405 69.405Z" stroke="#EF8F19" stroke-linecap="round" stroke-linejoin="round"/>
</svg>
