<svg width="100" height="100" viewBox="0 0 100 100" fill="none" xmlns="http://www.w3.org/2000/svg">
<path d="M96.2851 53.6856C95.58 62.5463 92.3461 71.0185 86.9677 78.0954C81.5893 85.1723 74.2925 90.5566 65.9441 93.6086C57.5957 96.6606 48.5466 97.2519 39.872 95.3123C31.1975 93.3728 23.2619 88.9839 17.0083 82.6671C10.7546 76.3503 6.44573 68.3711 4.59346 59.6774C2.74119 50.9838 3.42344 41.9411 6.55915 33.6238C9.69485 25.3065 15.1522 18.0641 22.2829 12.7571C29.4135 7.45014 37.9177 4.30159 46.7851 3.68555" stroke="#EF8F19" stroke-width="2.05027" stroke-linecap="round" stroke-linejoin="round"/>
<path d="M69.926 57.7866C68.6362 61.1065 66.5391 64.0526 63.8244 66.3584C61.1098 68.6642 57.8632 70.257 54.3783 70.9927C50.8934 71.7284 47.28 71.5839 43.865 70.5721C40.45 69.5604 37.341 67.7133 34.8192 65.198C32.2975 62.6828 30.4424 59.5786 29.4219 56.1662C28.4014 52.7537 28.2475 49.1408 28.9742 45.654C29.701 42.1672 31.2854 38.9165 33.5842 36.1959C35.883 33.4754 38.8237 31.3707 42.1403 30.0723M49.9975 50.0009L67.8546 32.1437M67.8546 32.1437L82.1403 35.7151L96.4261 21.4294L82.1403 17.858L78.5689 3.57227L64.2832 17.858L67.8546 32.1437Z" stroke="#EF8F19" stroke-width="2.05027" stroke-linecap="round" stroke-linejoin="round"/>
</svg>
