<svg width="80" height="75" viewBox="0 0 80 75" fill="none" xmlns="http://www.w3.org/2000/svg">
<path d="M39.5671 58.8171V73.2754M25.1087 73.2754H54.0254M65.6088 1.02539H13.5254C10.2102 1.02539 7.03076 2.34235 4.68656 4.68656C2.34235 7.03076 1.02539 10.2102 1.02539 13.5254V46.3171C1.02539 49.6323 2.34235 52.8117 4.68656 55.1559C7.03076 57.5001 10.2102 58.8171 13.5254 58.8171H65.6088C68.924 58.8171 72.1034 57.5001 74.4476 55.1559C76.7918 52.8117 78.1088 49.6323 78.1088 46.3171V13.5254C78.1088 10.2102 76.7918 7.03076 74.4476 4.68656C72.1034 2.34235 68.924 1.02539 65.6088 1.02539Z" stroke="#EF8F19" stroke-width="2.05027" stroke-linecap="round" stroke-linejoin="round"/>
<path d="M32.373 20.0355C33.0813 18.4893 34.285 17.2236 35.7936 16.4388C37.3023 15.6539 39.0296 15.3946 40.7022 15.7021C41.8476 15.8786 42.9358 16.3211 43.8793 16.994C44.8229 17.6669 45.5956 18.5516 46.1356 19.5771C46.5239 20.3976 46.7343 21.2908 46.753 22.1983C46.7717 23.1058 46.5983 24.0069 46.2442 24.8427C45.8901 25.6784 45.3632 26.4298 44.6982 27.0476C44.0332 27.6653 43.2451 28.1355 42.3856 28.4271C41.5091 28.7607 40.7509 29.3462 40.2066 30.11C39.6624 30.8737 39.3564 31.7814 39.3272 32.7188V34.4855" stroke="#EF8F19" stroke-width="2.05027" stroke-miterlimit="10" stroke-linecap="round"/>
<path d="M39.1973 44.2656H39.2298" stroke="#EF8F19" stroke-width="2.05027" stroke-linecap="round" stroke-linejoin="round"/>
</svg>
