<svg version="1.2" xmlns="http://www.w3.org/2000/svg" viewBox="0 0 880 971" width="880" height="971"><defs><clipPath clipPathUnits="userSpaceOnUse" id="cp1"><path d="m-73-4537h3840v16400h-3840z"/></clipPath><linearGradient id="P" gradientUnits="userSpaceOnUse"/><linearGradient id="g1" x2="1" href="#P" gradientTransform="matrix(300.035,0,0,888.852,53.719,459.557)"><stop stop-color="#d9d9d9"/><stop offset="1" stop-color="#fff"/></linearGradient><linearGradient id="g2" x2="1" href="#P" gradientTransform="matrix(270.26,0,0,800.989,13.628,425.679)"><stop stop-color="#d9d9d9"/><stop offset="1" stop-color="#fff"/></linearGradient><linearGradient id="g3" x2="1" href="#P" gradientTransform="matrix(180.432,0,0,791.281,352.275,551.419)"><stop stop-color="#d9d9d9"/><stop offset="1" stop-color="#fff"/></linearGradient><linearGradient id="g4" x2="1" href="#P" gradientTransform="matrix(209.64,0,0,912.831,387.855,501.703)"><stop stop-color="#d9d9d9"/><stop offset="1" stop-color="#fff"/></linearGradient><linearGradient id="g5" x2="1" href="#P" gradientTransform="matrix(108.507,0,0,476.172,596.441,503.547)"><stop stop-color="#d9d9d9"/><stop offset="1" stop-color="#fff"/></linearGradient><linearGradient id="g6" x2="1" href="#P" gradientTransform="matrix(136.88,0,0,642.161,626.536,582.859)"><stop stop-color="#d9d9d9"/><stop offset="1" stop-color="#fff"/></linearGradient><linearGradient id="g7" x2="1" href="#P" gradientTransform="matrix(59.521,0,0,235.983,760.782,603.099)"><stop stop-color="#d9d9d9"/><stop offset="1" stop-color="#fff"/></linearGradient><linearGradient id="g8" x2="1" href="#P" gradientTransform="matrix(90.598,0,0,402.675,785.012,525.787)"><stop stop-color="#d9d9d9"/><stop offset="1" stop-color="#fff"/></linearGradient><linearGradient id="g9" x2="1" href="#P" gradientTransform="matrix(124.392,0,0,238.237,-27.347,798.457)"><stop stop-color="#0063be"/><stop offset="1" stop-color="#00c2df"/></linearGradient><linearGradient id="g10" x2="1" href="#P" gradientTransform="matrix(350.125,0,0,933.954,97.928,467.482)"><stop stop-color="#0063be"/><stop offset="1" stop-color="#00c2df"/></linearGradient><linearGradient id="g11" x2="1" href="#P" gradientTransform="matrix(246.539,0,0,970.173,427.351,485.587)"><stop stop-color="#0063be"/><stop offset="1" stop-color="#00c2df"/></linearGradient><linearGradient id="g12" x2="1" href="#P" gradientTransform="matrix(174.083,0,0,711.559,654.129,615.044)"><stop stop-color="#0063be"/><stop offset="1" stop-color="#00c2df"/></linearGradient><linearGradient id="g13" x2="1" href="#P" gradientTransform="matrix(70.574,0,0,368.876,809.392,443.715)"><stop stop-color="#0063be"/><stop offset="1" stop-color="#00c2df"/></linearGradient></defs><style>.a{fill:url(#g1)}.b{fill:url(#g2)}.c{fill:url(#g3)}.d{fill:url(#g4)}.e{fill:url(#g5)}.f{fill:url(#g6)}.g{fill:url(#g7)}.h{fill:url(#g8)}.i{fill:url(#g9)}.j{fill:url(#g10)}.k{fill:url(#g11)}.l{fill:url(#g12)}.m{fill:url(#g13)}</style><g clip-path="url(#cp1)"><path class="a" d="m326.8 19.2c-27 4.1-62.1 118.5-85.8 207.5-23.6 89-79.2 330-116.8 471.3-37.5 141.3-70.5 172.5-70.5 172.5 0 0 7.1 13.2 19.3 33.5 30.2-15.5 77.4-147.2 116.6-321.2 39.2-174 102.9-431.3 123.3-492.5 20.4-61.3 40.9-75.2 40.9-75.2z"/><path class="b" d="m257.1 25.7c-9.5 0.7-18.5 15.6-18.5 15.6-26.1 35.2-49.8 112.7-72.7 193.5-22.9 80.9-80.9 322.7-109.5 426.4-28.5 103.7-42.8 118.6-42.8 118.6l18.8 46.4c0 0 19.9-33.6 40-101.2 20-77.6 74.5-284.3 95.9-378 21.3-93.7 47.2-179 68.8-244.6 21.7-65.5 46.8-77.2 46.8-77.2 0 0-1.9 0-4.9 0-5.8 0-15.6 0.1-21.9 0.5z"/><path class="c" d="m352.3 226.4c0 0 34.5 175.5 51.4 274.5 16.8 99 50.5 272.3 64.2 340.3 13.7 67.9 36.9 103.2 42.7 104.8 3.1 0.9 2.9 0.8 5.5 0.7 2.3-0.1 6.5-0.1 16.6 0.4-21.1-28-34.8-90.6-49.5-161.7-14.8-71.2-43.2-232.3-64.8-362.4-21.6-130.1-48.2-267.2-48.2-267.2z"/><path class="d" d="m387.9 91.1c17.9 62.7 46.8 204.4 60.5 281.8 13.7 77.4 46.9 285.5 66.9 403 20 117.4 35.8 143.2 43.7 161.7 7.9 18.4 21.1 18.9 38.5 20.5-11.1-14.2-26.9-55.8-32.1-81.1-5.3-25.3-45.9-251.3-68.5-395-22.7-143.8-34.2-213.4-53.7-303.4-19.5-90.1-36.9-133.3-36.9-133.3z"/><path class="e" d="m687.6 265.5c-17.4 0-39.5 100-48 152.2-8.4 51.9-42.8 238.7-43.2 240.7l12.2 83.2c0 0 18.4-91.1 28.4-161.7 10-70.6 31.6-195.4 42.1-244.9 10.5-49.1 25.6-69.2 25.8-69.5z"/><path class="f" d="m741.3 264.9c-6.9 1.6-21.1 27.4-29 70.6-7.9 43.2-22.1 117-46.9 277.1-24.7 160.1-38.9 218.5-38.9 218.5 0 0 5.2 31.6 13.2 72.8 4.2-9.5 15.7-63.8 27.8-137.5 12.2-73.8 33.8-220.7 54.3-356.1 20.5-135.4 41.6-148.5 41.6-148.5 0 0-15.3 1.6-22.1 3.1z"/><path class="g" d="m760.8 560.4c0.2 1.3 17.9 90.8 22.6 119.6 4.8 29 18.5 41.1 18.5 41.1h18.4c0 0-12.1-16.9-17.4-46.9-5.2-30-31.6-189.1-31.6-189.1z"/><path class="h" d="m785 395c0 0 35.8 226 44.8 265.5 8.9 39.5 14.2 65.9 26.3 66.4 12 0.5 19.3 0 19.5 0-0.2-0.3-11.6-17.1-16.8-42.2-5.3-25.2-61.1-360.2-61.1-360.2z"/><path class="i" d="m1 843.1c34.5 68.3 60.9 88.8 96 87.9-32.1-25.2-70.4-115.6-96-183.9z"/><path class="j" d="m448 0.5c-17.3 0.9-43.4 6.2-48.3 7.1-19.8 3.8-44.8 72.9-74 179.2-19.4 70.9-92.2 407.5-128.9 546.7-36.7 139.3-73.4 187.3-98.9 200.2 27.3 1.7 41 0.1 41 0.1 32-13.2 63.6-84.5 81.4-150.4 17.9-65.9 53.7-192.9 114.8-480.8 54.9-258.4 92.3-290.8 92.3-290.8 0 0 0.5-1.6 20.6-11.3z"/><path class="k" d="m448.1 0.5q0 0 0 0c-10.9 0.4-20.7 11.3-20.7 11.3 0 0 31.9 32 59.2 179.7 27.3 147.8 92.2 561.8 100.7 617.3 8.5 55.5 29.2 151.5 46.1 156.2 17 4.7 40.5 5.7 40.5 5.7 0 0-21.7-7.6-28.2-35.8-6.6-28.2-67.8-376.4-86.6-503.4-18.8-127.1-37.7-239-56.5-320.9-18.6-80.8-43.1-109.8-54.1-110.1z"/><path class="l" d="m827.2 259.3h1q-0.2 0-0.5 0-0.2 0-0.5 0zm-31.9 2.8c-2.8 2.8-21.7 9.4-43.3 170.3 0 0-44.2 299.3-53.6 361.4-9.5 62.1-28.3 158.1-44.3 159.9 0 0 8.5 14.1 19.8 17 11.3 2.8 29.2-33.9 41.4-111.1 12.2-77.1 63-422.5 73.4-486.5 10.1-62.8 21.2-112.9 38.5-113.8-20.9 0-29.1 0-31.9 2.8z"/><path class="m" d="m827.9 259.3c-12 0.2-18.5 17.9-18.5 17.9 14.1 0 35.7 149.6 44.2 208.9 8.5 59.2 24.5 142 24.5 142l1.9-130.7-5.7-43.3c-18.8-128.7-33.7-194.3-46-194.8z"/></g></svg>